# File created by Blade
# Date/Time:  Wed Jan 21 17:10:49 2015
#---------------------------------------------------------
:version 1.10
:name HOM
:units
  mass 1.0
  length 1.000000
  angle deg
:documentation
     Acclaim Skeleton File
:root
   axis xyz
   order TX TY TZ RX RY RZ
   position 0.000000 0.000000 0.000000
   orientation 0 0 0
:bonedata
   begin
      id 1
      name Spine_dum
      direction 0.000000 1.000000 0.000000
      length 7.067664
      axis 0.0 0.0 0.0 xyz
   end
   begin
      id 2
      name LeftUpLeg_dum
      direction 1.000000 0.000000 0.000000
      length 4.013002
      axis 0.0 0.0 0.0 xyz
   end
   begin
      id 3
      name RightUpLeg_dum
      direction -1.000000 0.000000 0.000000
      length 4.013002
      axis 0.0 0.0 0.0 xyz
   end
   begin
      id 4
      name Spine
      direction 0.000000 1.000000 0.000000
      length 0.000000
      axis 0.0 0.0 0.0 xyz
      dof rx ry rz
   end
   begin
      id 5
      name Spine_dum1
      direction 0.000000 1.000000 0.000000
      length 15.039886
      axis 0.0 0.0 0.0 xyz
   end
   begin
      id 6
      name Spine_dum2
      direction 0.000000 1.000000 0.000000
      length 10.530368
      axis 0.0 0.0 0.0 xyz
   end
   begin
      id 7
      name Spine_dum3
      direction 0.000000 1.000000 0.000000
      length 10.530368
      axis 0.0 0.0 0.0 xyz
   end
   begin
      id 8
      name Head
      direction 0.000000 1.000000 0.000000
      length 4.527550
      axis 0.0 0.0 0.0 xyz
      dof rx ry rz
   end
   begin
      id 9
      name LeftShoulder
      direction 1.000000 0.000000 0.000000
      length 7.028855
      axis 0.0 0.0 -90.0 xyz
      dof rx ry rz
   end
   begin
      id 10
      name LeftArm
      direction 1.000000 0.000000 0.000000
      length 10.797705
      axis 0.0 0.0 -90.0 xyz
      dof rx ry rz
   end
   begin
      id 11
      name LeftForeArm
      direction 1.000000 0.000000 0.000000
      length 7.907442
      axis 0.0 0.0 -90.0 xyz
      dof ry rz rx
   end
   begin
      id 12
      name LeftHand
      direction 0.000000 0.000000 0.000000
      length 0.000000
      axis 0.0 0.0 -90.0 xyz
      dof rx ry rz
   end
   begin
      id 13
      name LeftHand_dum1
      direction 0.000000 0.000000 0.000000
      length 0.000000
      axis 0.0 0.0 -90.0 xyz
   end
   begin
      id 14
      name LeftHand_dum2
      direction 1.000000 0.000000 0.000000
      length 3.937000
      axis 0.0 0.0 -90.0 xyz
   end
   begin
      id 15
      name LeftHandThumb1
      direction 0.000000 0.000000 1.000000
      length 3.937000
      axis 0.0 0.0 -90.0 xyz
      dof rx rz ry
   end
   begin
      id 16
      name RightShoulder
      direction -1.000000 0.000000 0.000000
      length 7.028855
      axis 0.0 0.0 90.0 xyz
      dof rx ry rz
   end
   begin
      id 17
      name RightArm
      direction -1.000000 0.000000 0.000000
      length 10.797705
      axis 0.0 0.0 90.0 xyz
      dof rx ry rz
   end
   begin
      id 18
      name RightForeArm
      direction -1.000000 0.000000 0.000000
      length 7.907442
      axis 0.0 0.0 90.0 xyz
      dof ry rz rx
   end
   begin
      id 19
      name RightHand
      direction 0.000000 0.000000 0.000000
      length 0.000000
      axis 0.0 0.0 90.0 xyz
      dof rx ry rz
   end
   begin
      id 20
      name RightHand_dum1
      direction 0.000000 0.000000 0.000000
      length 0.000000
      axis 0.0 0.0 90.0 xyz
   end
   begin
      id 21
      name RightHand_dum2
      direction -1.000000 0.000000 0.000000
      length 3.937000
      axis 0.0 0.0 90.0 xyz
   end
   begin
      id 22
      name RightHandThumb1
      direction 0.000000 0.000000 1.000000
      length 3.937000
      axis 0.0 0.0 90.0 xyz
      dof rx rz ry
   end
   begin
      id 23
      name LeftUpLeg
      direction 0.000000 -1.000000 0.000000
      length 16.899758
      axis 0.0 0.0 0.0 xyz
      dof rx ry rz
   end
   begin
      id 24
      name LeftLeg
      direction 0.000000 -1.000000 0.000000
      length 17.389183
      axis 0.0 0.0 0.0 xyz
      dof rx ry rz
   end
   begin
      id 25
      name LeftFoot
      direction 0.000000 -0.258819 0.965926
      length 4.924528
      axis 15.0 0.0 0.0 xyz
      dof rx ry rz
   end
   begin
      id 26
      name LeftToeBase
      direction 0.000000 0.000000 1.000000
      length 2.952750
      axis 0.0 0.0 0.0 xyz
      dof rx ry rz
   end
   begin
      id 27
      name RightUpLeg
      direction 0.000000 -1.000000 0.000000
      length 16.899758
      axis 0.0 0.0 0.0 xyz
      dof rx ry rz
   end
   begin
      id 28
      name RightLeg
      direction 0.000000 -1.000000 0.000000
      length 17.389183
      axis 0.0 0.0 0.0 xyz
      dof rx ry rz
   end
   begin
      id 29
      name RightFoot
      direction 0.000000 -0.258819 0.965926
      length 4.924528
      axis 15.0 0.0 0.0 xyz
      dof rx ry rz
   end
   begin
      id 30
      name RightToeBase
      direction 0.000000 0.000000 1.000000
      length 2.952750
      axis 0.0 0.0 0.0 xyz
      dof rx ry rz
   end
:hierarchy
   begin
      root Spine_dum LeftUpLeg_dum RightUpLeg_dum
      Spine_dum Spine
      LeftUpLeg_dum LeftUpLeg
      RightUpLeg_dum RightUpLeg
      Spine Spine_dum1 Spine_dum2 Spine_dum3
      Spine_dum1 Head
      Spine_dum2 LeftShoulder
      Spine_dum3 RightShoulder
      LeftShoulder LeftArm
      LeftArm LeftForeArm
      LeftForeArm LeftHand
      LeftHand LeftHand_dum1 LeftHand_dum2
      LeftHand_dum1 LeftHandThumb1
      RightShoulder RightArm
      RightArm RightForeArm
      RightForeArm RightHand
      RightHand RightHand_dum1 RightHand_dum2
      RightHand_dum1 RightHandThumb1
      LeftUpLeg LeftLeg
      LeftLeg LeftFoot
      LeftFoot LeftToeBase
      RightUpLeg RightLeg
      RightLeg RightFoot
      RightFoot RightToeBase
   end

# File created by Blade
# Date/Time:  Wed Jan 21 17:10:37 2015
# Frame Rate: 120.000 fps
#------------------------------------------------------
:FULLY-SPECIFIED
:DEGREES
95
root 19.772259 35.692770 -21.070201 -178.735113 -0.263786 -177.931509
Spine 7.365552 1.282958 1.495295
Head 28.191560 -0.235081 0.802884
LeftShoulder -6.475053 -21.704888 1.198637
LeftArm 6.097162 10.577039 -34.585820
LeftForeArm 7.840263 -0.000000 6.190460
LeftHand -6.401361 0.000000 4.221271
LeftHandThumb1 -26.253704 0.000000 33.147579
RightShoulder -7.393076 -13.531717 2.514691
RightArm 23.348520 18.265723 36.368417
RightForeArm -34.934664 -0.000000 18.014666
RightHand -11.889516 0.000000 -4.047069
RightHandThumb1 -24.326973 -0.000000 -32.862282
LeftUpLeg 1.900528 11.186313 6.684584
LeftLeg -1.948156 -0.000000 0.000000
LeftFoot -16.768470 26.779283 -14.339556
LeftToeBase 24.373873 -0.000000 -0.000000
RightUpLeg -1.045314 -9.653379 1.677075
RightLeg 3.158500 -0.000000 -0.000000
RightFoot -20.456814 -27.696073 16.125286
RightToeBase 24.302216 -0.000000 -0.000000
96
root 19.846415 35.699971 -20.996054 -178.894305 -0.315519 -177.801869
Spine 8.313764 1.161687 1.676065
Head 28.023426 -0.069985 0.644930
LeftShoulder -6.456688 -21.624841 0.740999
LeftArm 5.742042 10.195479 -35.704035
LeftForeArm 8.212480 -0.000000 6.559390
LeftHand -6.248033 -0.000000 4.225229
LeftHandThumb1 -26.253704 0.000000 33.147579
RightShoulder -7.123995 -13.516668 2.588201
RightArm 23.422373 17.880290 37.604704
RightForeArm -35.077358 -0.000000 18.783697
RightHand -11.972031 -0.000000 -4.460907
RightHandThumb1 -24.326973 -0.000000 -32.862282
LeftUpLeg 1.735555 11.110535 6.934058
LeftLeg -1.593949 -0.000000 0.000000
LeftFoot -16.797041 26.812484 -14.416710
LeftToeBase 24.392338 -0.000000 -0.000000
RightUpLeg -1.097811 -9.567375 1.929982
RightLeg 3.353101 -0.000000 -0.000000
RightFoot -20.471039 -27.708436 16.184230
RightToeBase 24.094077 -0.000000 -0.000000
97
root 19.919655 35.704238 -20.928524 -179.007223 -0.383881 -177.713045
Spine 9.168394 1.035983 1.803640
Head 27.884349 0.031473 0.447114
LeftShoulder -6.466076 -21.434109 0.307847
LeftArm 5.519924 9.999186 -36.802763
LeftForeArm 8.524907 -0.000000 6.796137
LeftHand -6.184677 -0.000000 4.063209
LeftHandThumb1 -26.253704 0.000000 33.147579
RightShoulder -6.934947 -13.591844 2.691076
RightArm 23.620080 17.465916 38.872182
RightForeArm -35.089168 -0.000000 19.461640
RightHand -12.046380 0.000000 -4.812620
RightHandThumb1 -24.326973 -0.000000 -32.862282
LeftUpLeg 1.523418 10.910838 7.136619
LeftLeg -1.211293 -0.000000 0.000000
LeftFoot -16.850112 26.903441 -14.531280
LeftToeBase 24.383696 -0.000000 -0.000000
RightUpLeg -1.184569 -9.548513 2.135768
RightLeg 3.540732 -0.000000 -0.000000
RightFoot -20.496816 -27.737275 16.234506
RightToeBase 24.132179 -0.000000 -0.000000
98
root 19.995443 35.705354 -20.840138 -178.964581 -0.296509 -177.668302
Spine 9.895772 1.050043 1.837085
Head 27.669255 0.206537 0.336496
LeftShoulder -6.557847 -21.250286 -0.079739
LeftArm 5.419317 9.950586 -37.848322
LeftForeArm 8.644747 -0.000000 6.875189
LeftHand -5.896223 -0.000000 3.934589
LeftHandThumb1 -26.253704 0.000000 33.147579
RightShoulder -6.709883 -13.637489 2.762106
RightArm 23.819354 17.130072 40.282743
RightForeArm -35.162201 -0.000000 20.135025
RightHand -12.138721 -0.000000 -5.175753
RightHandThumb1 -24.326973 -0.000000 -32.862282
LeftUpLeg 1.126590 10.854291 7.265097
LeftLeg -0.777363 -0.000000 0.000000
LeftFoot -16.928049 27.044343 -14.663619
LeftToeBase 24.348748 -0.000000 -0.000000
RightUpLeg -1.547390 -9.176070 2.334124
RightLeg 3.878771 -0.000000 -0.000000
RightFoot -20.615297 -27.907109 16.347509
RightToeBase 23.860123 -0.000000 -0.000000
99
root 20.074365 35.706425 -20.744123 -178.849759 -0.171963 -177.629388
Spine 10.540216 1.164332 1.865787
Head 27.497074 0.301565 0.210153
LeftShoulder -6.552883 -21.142772 -0.455968
LeftArm 5.215143 9.970974 -38.934725
LeftForeArm 8.740057 -0.000000 6.941998
LeftHand -5.677425 -0.000000 3.900008
LeftHandThumb1 -26.253704 0.000000 33.147579
RightShoulder -6.465450 -13.628925 2.813364
RightArm 23.879425 16.714990 41.678809
RightForeArm -35.166204 -0.000000 20.813158
RightHand -12.245152 -0.000000 -5.602847
RightHandThumb1 -24.326973 -0.000000 -32.862282
LeftUpLeg 0.592564 10.901234 7.371165
LeftLeg -0.227362 -0.000000 0.000000
LeftFoot -17.032720 27.151261 -14.807512
LeftToeBase 24.308394 -0.000000 -0.000000
RightUpLeg -2.003231 -8.678401 2.545373
RightLeg 4.234500 -0.000000 -0.000000
RightFoot -20.742388 -28.120764 16.387000
RightToeBase 23.608739 -0.000000 -0.000000
100
root 20.155374 35.705603 -20.646851 -178.755939 -0.059267 -177.590104
Spine 11.219602 1.242421 1.881855
Head 27.286452 0.446160 0.102314
LeftShoulder -6.560086 -21.078529 -0.754145
LeftArm 4.932314 10.283659 -40.048314
LeftForeArm 8.383521 -0.000000 7.025837
LeftHand -5.491889 -0.000000 3.796647
LeftHandThumb1 -26.253704 0.000000 33.147579
RightShoulder -6.198921 -13.657454 2.856778
RightArm 24.018984 16.377902 43.139968
RightForeArm -35.185506 -0.000000 21.443025
RightHand -12.357689 -0.000000 -5.835207
RightHandThumb1 -24.326973 -0.000000 -32.862282
LeftUpLeg 0.046599 10.908409 7.488364
LeftLeg 0.383931 -0.000000 -0.000000
LeftFoot -17.156749 27.259921 -14.935247
LeftToeBase 24.262541 -0.000000 -0.000000
RightUpLeg -2.452743 -8.278302 2.755208
RightLeg 4.620113 -0.000000 -0.000000
RightFoot -20.922823 -28.274810 16.469798
RightToeBase 23.361719 -0.000000 -0.000000
101
root 20.239766 35.704748 -20.556718 -178.696900 -0.007343 -177.564793
Spine 11.919011 1.328961 1.870642
Head 27.101101 0.500088 0.025109
LeftShoulder -6.468845 -21.096801 -1.065715
LeftArm 4.548561 10.236572 -41.206485
LeftForeArm 8.560787 -0.000000 7.149556
LeftHand -5.482750 -0.000000 3.775089
LeftHandThumb1 -26.253704 0.000000 33.147579
RightShoulder -5.940489 -13.628979 2.922911
RightArm 24.057343 16.013664 44.589768
RightForeArm -35.071481 0.000000 22.024148
RightHand -12.393581 0.000000 -6.185984
RightHandThumb1 -24.326973 -0.000000 -32.862282
LeftUpLeg -0.473968 10.772203 7.601442
LeftLeg 1.008329 -0.000000 -0.000000
LeftFoot -17.317661 27.448653 -15.138292
LeftToeBase 24.270161 -0.000000 -0.000000
RightUpLeg -2.832578 -7.952984 2.945434
RightLeg 4.968745 -0.000000 -0.000000
RightFoot -21.055739 -28.420777 16.466015
RightToeBase 23.207569 -0.000000 -0.000000
102
root 20.326800 35.702520 -20.466950 -178.624274 0.055223 -177.517787
Spine 12.609647 1.370725 1.873260
Head 26.878203 0.653520 -0.067277
LeftShoulder -6.447156 -21.192334 -1.330220
LeftArm 4.098777 10.345745 -42.378397
LeftForeArm 8.539990 -0.000000 7.250534
LeftHand -5.470428 0.000000 3.758854
LeftHandThumb1 -26.253704 0.000000 33.147579
RightShoulder -5.718786 -13.670073 3.018654
RightArm 24.279183 15.555309 45.985172
RightForeArm -34.920435 0.000000 22.499458
RightHand -12.469677 -0.000000 -6.597825
RightHandThumb1 -24.326973 -0.000000 -32.862282
LeftUpLeg -1.054101 10.735287 7.738439
LeftLeg 1.726627 -0.000000 -0.000000
LeftFoot -17.470295 27.558112 -15.270113
LeftToeBase 24.287565 -0.000000 -0.000000
RightUpLeg -3.222822 -7.556253 3.162383
RightLeg 5.316163 -0.000000 -0.000000
RightFoot -21.234344 -28.641318 16.521029
RightToeBase 22.850751 -0.000000 -0.000000
103
root 20.413753 35.698973 -20.374922 -178.574491 0.126862 -177.495443
Spine 13.336224 1.475258 1.846049
Head 26.662567 0.741258 -0.147343
LeftShoulder -6.371032 -21.219562 -1.635292
LeftArm 3.751564 10.496568 -43.485646
LeftForeArm 8.482761 -0.000000 7.300947
LeftHand -5.366052 -0.000000 3.738932
LeftHandThumb1 -26.253704 0.000000 33.147579
RightShoulder -5.463252 -13.597292 3.062145
RightArm 24.366960 15.029098 47.404994
RightForeArm -34.845605 0.000000 22.907110
RightHand -12.377300 -0.000000 -6.956823
RightHandThumb1 -24.326973 -0.000000 -32.862282
LeftUpLeg -1.645390 10.655275 7.849266
LeftLeg 2.504482 -0.000000 -0.000000
LeftFoot -17.670519 27.739064 -15.457429
LeftToeBase 24.260861 -0.000000 -0.000000
RightUpLeg -3.612299 -7.197994 3.343810
RightLeg 5.709652 -0.000000 -0.000000
RightFoot -21.399302 -28.787088 16.517978
RightToeBase 22.567041 -0.000000 -0.000000
104
root 20.502821 35.696555 -20.292226 -178.595523 0.130044 -177.457913
Spine 14.131267 1.499609 1.832659
Head 26.442523 0.793330 -0.223712
LeftShoulder -6.306316 -21.188451 -2.004182
LeftArm 3.497262 10.509490 -44.472018
LeftForeArm 8.569567 -0.000000 7.342750
LeftHand -5.418199 -0.000000 3.323144
LeftHandThumb1 -26.253704 0.000000 33.147579
RightShoulder -5.138211 -13.493808 3.138034
RightArm 24.341810 14.439277 48.688258
RightForeArm -34.597764 -0.000000 23.305787
RightHand -12.256469 0.000000 -7.324355
RightHandThumb1 -24.326973 -0.000000 -32.862282
LeftUpLeg -2.181144 10.391660 7.990648
LeftLeg 3.304348 -0.000000 -0.000000
LeftFoot -17.895895 28.044851 -15.675146
LeftToeBase 24.226945 -0.000000 -0.000000
RightUpLeg -3.851466 -6.885497 3.529825
RightLeg 6.000541 -0.000000 -0.000000
RightFoot -21.570719 -28.905861 16.545799
RightToeBase 22.171102 -0.000000 -0.000000
105
root 20.593489 35.692592 -20.207139 -178.648833 0.092854 -177.406323
Spine 14.978300 1.483361 1.837475
Head 26.182352 0.861756 -0.321164
LeftShoulder -6.238342 -21.144627 -2.368849
LeftArm 3.296274 10.505437 -45.461301
LeftForeArm 8.750488 -0.000000 7.312323
LeftHand -5.272120 0.000000 3.015647
LeftHandThumb1 -26.253704 0.000000 33.147579
RightShoulder -4.859059 -13.362816 3.175259
RightArm 24.431826 13.784450 50.032000
RightForeArm -34.551632 -0.000000 23.591226
RightHand -12.314276 0.000000 -7.357490
RightHandThumb1 -24.326973 -0.000000 -32.862282
LeftUpLeg -2.771146 10.190033 8.148885
LeftLeg 4.244149 -0.000000 -0.000000
LeftFoot -18.107827 28.267949 -15.773561
LeftToeBase 24.246968 -0.000000 -0.000000
RightUpLeg -4.097198 -6.651947 3.725575
RightLeg 6.364677 -0.000000 -0.000000
RightFoot -21.797283 -29.021276 16.659053
RightToeBase 21.800021 -0.000000 -0.000000
106
root 20.679582 35.688157 -20.127682 -178.736099 0.024449 -177.397913
Spine 15.842386 1.450005 1.791011
Head 25.957443 0.916471 -0.418094
LeftShoulder -6.164328 -21.072854 -2.753673
LeftArm 3.110217 10.749024 -46.367990
LeftForeArm 8.668016 -0.000000 7.408172
LeftHand -5.378312 -0.000000 2.675887
LeftHandThumb1 -26.253704 0.000000 33.147579
RightShoulder -4.522853 -13.190923 3.222116
RightArm 24.428066 13.041885 51.255364
RightForeArm -34.491115 -0.000000 23.762771
RightHand -12.183232 0.000000 -7.326501
RightHandThumb1 -24.326973 -0.000000 -32.862282
LeftUpLeg -3.338213 9.895222 8.255433
LeftLeg 5.202053 -0.000000 -0.000000
LeftFoot -18.286628 28.591988 -15.798396
LeftToeBase 24.248239 -0.000000 -0.000000
RightUpLeg -4.281288 -6.529965 3.863919
RightLeg 6.695747 -0.000000 -0.000000
RightFoot -22.008433 -29.084132 16.636732
RightToeBase 21.347286 -0.000000 -0.000000
107
root 20.768039 35.683001 -20.053994 -178.890357 -0.111616 -177.379534
Spine 16.777293 1.347688 1.727556
Head 25.702591 0.954548 -0.432880
LeftShoulder -6.107808 -20.946411 -3.105882
LeftArm 3.011481 11.073055 -47.246813
LeftForeArm 8.463289 0.000000 7.409320
LeftHand -5.265051 -0.000000 2.397438
LeftHandThumb1 -26.253704 0.000000 33.147579
RightShoulder -4.162389 -13.122342 3.338301
RightArm 24.536513 12.262792 52.342063
RightForeArm -34.386124 -0.000000 23.844912
RightHand -12.171838 -0.000000 -7.517376
RightHandThumb1 -24.326973 -0.000000 -32.862282
LeftUpLeg -3.872033 9.456595 8.382227
LeftLeg 6.210128 -0.000000 -0.000000
LeftFoot -18.490955 29.000750 -15.783327
LeftToeBase 24.223219 -0.000000 -0.000000
RightUpLeg -4.352690 -6.485879 4.006169
RightLeg 6.948271 -0.000000 -0.000000
RightFoot -22.205089 -29.254404 16.710863
RightToeBase 20.725234 -0.000000 -0.000000
